<?xml version="1.0" encoding="utf-8"?>
<!-- Generator: Adobe Illustrator 22.0.0, SVG Export Plug-In . SVG Version: 6.00 Build 0)  -->
<svg version="1.1" id="圖層_1" xmlns="http://www.w3.org/2000/svg" xmlns:xlink="http://www.w3.org/1999/xlink" x="0px" y="0px"
	 viewBox="0 0 425.1 304.5" style="enable-background:new 0 0 425.1 304.5;" xml:space="preserve">
<style type="text/css">
	.st0{fill:#231916;}
</style>
<g>
	<path class="st0" d="M243,5.1c-6.1-3.9-9-3-10.3-1.8l0,0c0,0-3.6,5.2-21.4,4.5v0.1C190.9,8.1,105,8.8,98.1,7.9
		c-3-0.4-7-1.7-9.5-2.6c0,0,0,0,0-0.1c-2.1-1.7-15.3-5.7-15.4,0.1C72.9,20.9,71.5,192,71.5,192s-0.7,18.1-5.9,27.8
		c-0.3,0.6,0.2,1.2,0.8,1.1c3.7-0.9,13-4.3,18.5-17.5c0,0,2.9-6.7,2.4-21.8c-0.3-9.5,1.1-128.3,1.5-165.2
		c21.6-0.1,108.6-0.7,140-0.9v0.1c0.1,12,1.2,145,0.6,170.1c-0.5,19-5.4,29.9-8.1,34.4c-0.5,0.7,0.3,1.6,1.1,1.2l9-4.1
		c15.6-7.6,14.6-25,14.5-25.8c0-0.1,0-0.1,0-0.1c0-2.7-0.3-166.6,0.4-170.4c0.7-3.6,4.2-5.5,4.2-5.5C254.7,11.5,247.9,8.2,243,5.1z"
		/>
	<path class="st0" d="M349.9,194.7c0.4-2.5,0.2-4.5,0.2-4.5s-0.2-161.1,0.1-163.8c0.3-2.6-0.9-8,4.3-10.9c5.2-2.9,0.8-5.9,0.8-5.9
		s-8.4-5-15.6-7s-5.9,9.2-5.9,9.2v12.1c0,0,0.3,140.4,0.1,168.5c0,0.3-0.1,0.7-0.1,1.1c0,0-1.2,18.4-6.6,27.2
		c-0.4,0.7,0.3,1.5,1,1.2C334.4,219.2,349.2,211.2,349.9,194.7z"/>
	<path class="st0" d="M301.5,15.5c5.2-2.9,0.8-5.9,0.8-5.9s-8.4-5-15.6-7s-5.9,9.2-5.9,9.2v12.1c0,0,0.2,138.7,0,168
		c-0.1,0.5-0.1,1-0.1,1.6c0,0-1.2,18.4-6.6,27.2c-0.4,0.7,0.3,1.5,1,1.2c6.1-2.6,20.7-10.5,21.6-26.6c0.6-2.7,0.4-5.1,0.4-5.1
		s-0.2-161.1,0.1-163.8C297.5,23.8,296.3,18.4,301.5,15.5z"/>
	<path class="st0" d="M155.8,47.4c1-1,2.1-2.3,3.3-3.9c19.3,30.4,62.4,58.1,62.3,53c-0.2-7-0.3-14.2-0.3-14.2
		c-28.2-16.2-49.4-39.8-56.1-47.8c0.4-0.7,0.7-1.3,1.1-1.9c2.7-5.1,1.4-6-1.9-6.6c-2.8-0.5-9.6-1.6-11.9-2c-0.4-0.1-0.9,0.2-1,0.6
		c-6.9,19.6-48.9,60.4-59.1,69.5c-0.6,0.6-0.1,1.7,0.8,1.5C120.8,89,152.5,50.7,155.8,47.4z"/>
	<path class="st0" d="M188,131.4c-4.1,12.6-19.4,35.4-19.4,35.4c10.9-3.6,25.5-22.3,28.4-24.2c3.9-2.8,1.7-7.1,1.7-7.1
		S191.1,121.9,188,131.4z"/>
	<path class="st0" d="M136.9,154.7c-3.5-12.4-24.1-23.2-24.1-23.2s11.8,20.4,13,26.3C127.3,166.3,140.5,167.4,136.9,154.7z"/>
	<path class="st0" d="M214.5,181.9c12.4,0.1,4.4-10.5,4.4-10.5c-2.7-3.6-8.2-8.5-10.9-4.3c-2.6,4-6.8,4-6.8,4h-39.6V124
		c19.7-0.1,38.7-0.2,42.3-0.5c8.1-0.8,3.8-7.7,3.8-7.7c-3.9-6.8-9.6-10.8-12.3-5.6c-2,3.7-6.3,3.8-6.3,3.8h-27.5V93.9
		c10.8,0,20.7,0,23.5-0.3c7.9-0.9,1.7-9,1.7-9c-5.7-8.4-10.2-8-12-4.9c-1.9,3.2-5.4,3-5.4,3h-43.1c-2.6,0.4-0.4,6.4,0.9,9.3
		c0.5,1.1,1.3,1.7,2.3,1.7c3,0,10.4,0.1,18.8,0.1V114h-36c-3.6,0-1.2,5.8,0.2,8.6c0.4,0.8,1.2,1.4,2.1,1.4c4.3,0,18.1,0.1,33.7,0.1
		v47h-48.1c-4.6,0-1.6,6.5,0.1,9.4c0.4,0.9,1.2,1.4,2.1,1.4h27.5C129.9,181.9,204.9,181.8,214.5,181.9z"/>
	<path class="st0" d="M25,277.5c-1.5-1-3.2-1.7-5.2-2.2s-4-0.7-6.1-0.7c-1.1,0-2.1,0.1-3.2,0.2S8.4,275,7.4,275s-2,0-3,0
		s-1.9,0-2.6,0l-0.1,1c0.9,0,1.8,0,2.3,0s0.9,0.2,1.2,0.4c0.3,0.2,0.4,0.5,0.5,0.8s0.1,0.8,0.1,1.3v19.6c0,0.7,0,1.3-0.1,1.8
		c0,0.5-0.2,0.8-0.5,1.1s-0.7,0.5-1.2,0.6c-0.5,0.2-1.2,0.2-2,0.3l0.1,1c0.3,0,0.7,0,1.1,0s0.9,0,1.3,0s0.9,0,1.3,0s0.8,0,1.2,0
		c1,0,2.1,0.1,3.2,0.2s2.2,0.2,3.2,0.2c2.2,0,4.4-0.3,6.4-1s3.8-1.7,5.3-3s2.7-3,3.6-4.9c0.9-2,1.3-4.2,1.3-6.7
		c0-2.4-0.5-4.4-1.4-6.1C27.7,279.9,26.5,278.5,25,277.5z M25,294.2c-0.6,1.6-1.5,3-2.6,4.1s-2.4,2-4,2.6s-3.3,0.9-5.2,0.9
		c-1,0-1.8-0.1-2.4-0.3c-0.5-0.2-0.9-0.4-1.2-0.8c-0.2-0.3-0.4-0.7-0.4-1.2c-0.1-0.5-0.1-1-0.1-1.6H9v-20.4c0-0.2,0.1-0.3,0.3-0.5
		c0.2-0.1,0.5-0.3,0.9-0.4s0.9-0.2,1.4-0.3c0.5-0.1,1.1-0.1,1.7-0.1c1.8,0,3.4,0.2,5,0.8c1.6,0.6,2.9,1.4,4,2.4s2,2.3,2.6,3.9
		c0.7,1.5,1,3.3,1,5.4C25.9,290.8,25.6,292.6,25,294.2z"/>
	<path class="st0" d="M46.7,277.8c0.1-0.5,0.3-0.8,0.6-1.1c0.2-0.3,0.6-0.5,1.1-0.6s1.1-0.2,1.9-0.3l-0.1-1c-0.3,0-0.6,0-1,0
		s-0.9,0-1.3,0c-0.5,0-0.9,0-1.4,0c-0.4,0-0.8,0-1.2,0c-0.5,0-1,0-1.5,0s-1.1,0-1.6,0s-1,0-1.4,0s-0.8,0-1.1,0l-0.1,1.1
		c0.8,0,1.4,0.1,1.9,0.2s0.8,0.3,1.1,0.5s0.4,0.5,0.5,0.8s0.1,0.7,0.1,1.2v19.7c0,0.7,0,1.3-0.1,1.8s-0.2,0.8-0.5,1.1
		c-0.3,0.3-0.6,0.5-1.1,0.6c-0.4,0.1-1,0.2-1.8,0.3l-0.1,1c0.3,0,0.6,0,1,0s0.9,0,1.3,0c0.4,0,0.9,0,1.3,0c0.5,0,0.9,0,1.3,0
		c0.5,0,1,0,1.5,0c0.6,0,1.1,0,1.6,0s1,0,1.5,0s0.9,0,1.2,0V302c-0.9,0-1.5-0.1-2-0.2s-0.8-0.3-1.1-0.5s-0.4-0.5-0.5-0.8
		s-0.1-0.7-0.1-1.2v-19.7C46.6,278.9,46.6,278.3,46.7,277.8z"/>
	<path class="st0" d="M83.3,301.4c-0.3-0.2-0.6-0.6-0.8-1.1c-0.2-0.5-0.5-1.1-0.8-2l-6.6-19.1c-0.2-0.6-0.5-1.3-0.7-2.1
		c-0.3-0.8-0.5-1.7-0.7-2.6l-1.8,0.2c-0.2,0.5-0.5,1-0.7,1.4s-0.5,0.9-0.7,1.5l-8.1,19.8c-0.4,1-0.8,1.8-1.1,2.4s-0.6,1.1-1,1.4
		s-0.8,0.6-1.3,0.7s-1.1,0.2-1.9,0.3l0.1,1c0.7,0,1.4,0,2.2,0c0.7,0,1.5,0,2.2,0c0.9,0,1.8,0,2.7,0s1.7,0,2.4,0l0.1-1.1
		c-1.3-0.1-2.1-0.2-2.6-0.4s-0.7-0.6-0.7-1.1c0-0.3,0.2-1,0.6-2.1l2.3-5.8h9.8l1.9,6.4c0.1,0.4,0.2,0.7,0.3,1
		c0.1,0.2,0.1,0.5,0.1,0.7c0,0.5-0.2,0.8-0.7,1c-0.4,0.2-1.2,0.3-2.3,0.4l0.1,1c0.8,0,1.7,0,2.5,0s1.7,0,2.5,0c1,0,2,0,3,0
		s1.9,0,2.7,0l0.1-1.1c-0.8,0-1.4-0.1-1.9-0.2C84,301.8,83.6,301.7,83.3,301.4z M67.1,291l4.6-11.6h0.1l3.8,11.6H67.1z"/>
	<path class="st0" d="M125.7,301.6c-0.3-0.2-0.5-0.5-0.6-0.8s-0.2-0.7-0.2-1.2l-0.6-19.7c0-0.7,0-1.3,0.1-1.8s0.2-0.8,0.5-1.1
		c0.3-0.3,0.7-0.5,1.2-0.6c0.6-0.1,1.2-0.2,2.1-0.3l-0.1-1c-0.3,0-0.8,0-1.4,0c-0.7,0-1.4,0-2.1,0s-1.4,0-2.1,0s-1.2,0-1.6,0
		c-0.3,0.8-0.6,1.5-0.9,2.3s-0.7,1.5-1,2.3l-8.1,18.8h-0.1l-8.3-18.5c-0.4-0.8-0.7-1.7-1.1-2.5s-0.7-1.7-1.1-2.5c-0.6,0-1.2,0-1.9,0
		c-0.7,0-1.4,0-2.1,0s-1.3,0-1.9,0s-1,0-1.2,0l0.1,1c0.8,0.1,1.4,0.2,2,0.3c0.6,0.2,1,0.4,1.4,0.8c0.2,0.2,0.4,0.4,0.5,0.7
		c0.1,0.2,0.2,0.5,0.3,0.9c0,0.4,0.1,0.8,0.1,1.3s0,1.1,0,1.8L97,296.9c0,1.2-0.1,2.1-0.2,2.8c-0.1,0.7-0.3,1.2-0.6,1.5
		c-0.3,0.4-0.7,0.6-1.2,0.7s-1.2,0.2-2,0.3l0.1,1c0.6,0,1.4,0,2.2,0s1.6,0,2.3,0c0.9,0,1.8,0,2.5,0s1.4,0,2,0l0.1-1.1
		c-0.7,0-1.3-0.1-1.8-0.2s-0.8-0.2-1.1-0.5c-0.3-0.3-0.4-0.7-0.5-1.2c-0.1-0.6-0.1-1.3-0.1-2.2l0.5-16.6l0.1-0.1
		c1.7,3.8,3.4,7.5,5.1,11.2s3.3,7.4,5,11.3l1.4-0.2c1.7-4,3.3-8,5-11.9s3.4-7.8,5.1-11.8l0.1,0.1l0.5,18.6c0.1,0.8,0,1.3,0,1.8
		s-0.2,0.8-0.4,1.1c-0.3,0.3-0.6,0.5-1,0.6s-1,0.2-1.7,0.3l0.1,1c0.3,0,0.6,0,1,0s0.8,0,1.2,0c0.4,0,0.8,0,1.2,0c0.4,0,0.8,0,1.2,0
		c0.5,0,1,0,1.5,0c0.6,0,1.1,0,1.6,0s1,0,1.5,0c0.4,0,0.8,0,1.2,0l0.1-1.1c-0.9,0-1.6-0.1-2.1-0.2C126.4,302,126,301.8,125.7,301.6z
		"/>
	<path class="st0" d="M162.5,278.3c-1.3-1.3-2.8-2.2-4.6-2.9s-3.8-1-5.9-1c-2.2,0-4.2,0.3-5.9,1.1c-1.8,0.7-3.3,1.8-4.6,3.1
		c-1.3,1.3-2.3,2.9-3,4.7s-1.1,3.8-1.1,6s0.4,4.1,1.1,5.9c0.7,1.7,1.7,3.3,3,4.5c1.3,1.3,2.8,2.2,4.6,2.9s3.8,1,5.9,1
		s4.1-0.4,5.9-1.1c1.8-0.7,3.3-1.8,4.6-3.1s2.3-2.9,3-4.7s1.1-3.8,1.1-6s-0.4-4.1-1.1-5.9C164.8,281.1,163.8,279.6,162.5,278.3z
		 M161.7,295.5c-0.6,1.6-1.4,2.8-2.3,3.8c-1,1-2,1.6-3.3,2.1s-2.6,0.7-3.9,0.7s-2.5-0.2-3.8-0.7c-1.2-0.4-2.4-1.2-3.4-2.3
		s-1.9-2.5-2.5-4.3c-0.7-1.8-1-4-1-6.6c0-2.3,0.2-4.1,0.8-5.7s1.4-2.8,2.3-3.8c1-1,2-1.6,3.3-2.1s2.6-0.7,3.9-0.7
		c1.2,0,2.5,0.3,3.8,0.7c1.2,0.4,2.4,1.2,3.4,2.3s1.9,2.5,2.5,4.3c0.7,1.8,1,4,1,6.6C162.5,292.1,162.3,293.9,161.7,295.5z"/>
	<path class="st0" d="M203.4,274.8c-0.4,0-0.8,0-1.2,0s-0.8,0-1.2,0c-0.9,0-1.8,0-2.7,0c-0.8,0-1.6,0-2.2,0l-0.1,1.1
		c0.8,0,1.5,0.1,2,0.2s0.9,0.2,1.2,0.5s0.5,0.7,0.6,1.2c0.1,0.6,0.2,1.3,0.2,2.2v17l-0.1,0.1L181.1,275c-0.5,0-1.1,0-1.7,0
		c-0.6,0-1.3,0-1.8,0s-1,0-1.5,0c-0.4,0-0.8,0-1,0l-0.1,1.1c0.6,0,1.1,0,1.4,0.1s0.6,0.2,0.9,0.3c0.3,0.1,0.5,0.3,0.7,0.4
		s0.4,0.3,0.6,0.6c0.2,0.3,0.4,0.5,0.5,0.7s0.3,0.5,0.3,0.8s0.1,0.7,0.1,1.2s0,1.2,0,2v14.7c0,1.2-0.1,2.1-0.2,2.8
		c-0.1,0.7-0.3,1.2-0.6,1.5c-0.3,0.4-0.7,0.6-1.2,0.7s-1.1,0.2-1.9,0.3l0.1,1c0.6,0,1.4,0,2.2,0s1.6,0,2.3,0c1,0,1.9,0,2.7,0
		s1.6,0,2.2,0l0.1-1.1c-0.8,0-1.4-0.1-1.9-0.2s-0.9-0.2-1.2-0.5s-0.5-0.7-0.6-1.2c-0.1-0.6-0.2-1.3-0.2-2.2v-17.1l0.1-0.1l15.7,18.6
		c0.6,0.6,1.1,1.3,1.6,2s1,1.4,1.5,2.1l1.4-0.4v-22c0-1.2,0.1-2.1,0.2-2.8c0.1-0.7,0.3-1.2,0.6-1.5c0.3-0.4,0.7-0.6,1.2-0.7
		s1.1-0.2,1.9-0.3v-1c-0.3,0-0.6,0-1,0C204.2,274.8,203.8,274.8,203.4,274.8z"/>
	<path class="st0" d="M237.3,277.5c-1.5-1-3.2-1.7-5.2-2.2s-4-0.7-6.1-0.7c-1.1,0-2.1,0.1-3.2,0.2c-1.1,0.1-2.1,0.2-3.1,0.2
		s-2,0-3,0s-1.9,0-2.6,0l0.1,0.8c0.9,0,1.6,0.2,2.1,0.2s0.9,0.2,1.2,0.4c0.3,0.2,0.4,0.5,0.5,0.8s0.1,0.8,0.1,1.3v19.6
		c0,0.7,0,1.3-0.1,1.8c0,0.5-0.2,0.8-0.5,1.1s-0.7,0.4-1.2,0.6s-1.2,0.2-2,0.3l0.1,1c0.3,0,0.7,0,1.1,0c0.4,0,0.9,0,1.3,0
		c0.4,0,0.9,0,1.3,0c0.4,0,0.8,0,1.2,0c1,0,2.1,0.1,3.2,0.2c1.1,0.1,2.2,0.2,3.2,0.2c2.2,0,4.4-0.3,6.4-1s3.8-1.7,5.3-3
		s2.7-2.9,3.6-4.9c0.9-2,1.3-4.2,1.3-6.7c0-2.4-0.5-4.4-1.4-6.1S238.8,278.5,237.3,277.5z M237.3,294.2c-0.6,1.6-1.5,3-2.6,4.1
		s-2.4,2-4,2.6s-3.3,0.9-5.2,0.9c-1,0-1.8-0.1-2.4-0.3c-0.5-0.2-1-0.5-1.2-0.8s-0.4-0.7-0.4-1.2c-0.1-0.5-0.1-1-0.1-1.6h-0.1v-20.4
		c0-0.2,0.1-0.3,0.3-0.5c0.2-0.1,0.5-0.3,0.9-0.4s0.9-0.2,1.4-0.3c0.5-0.1,1.1-0.1,1.7-0.1c1.8,0,3.4,0.2,5,0.8
		c1.6,0.6,2.9,1.4,4,2.4s1.9,2.4,2.6,3.9c0.7,1.5,1,3.3,1,5.4C238.2,290.8,237.9,292.6,237.3,294.2z"/>
	<path class="st0" d="M287.5,289.5c-0.7-0.6-1.6-1.2-2.5-1.7c-0.9-0.4-1.9-0.9-2.8-1.3c-0.8-0.3-1.5-0.7-2.2-1s-1.3-0.7-1.8-1.2
		s-0.9-1.1-1.2-1.7c-0.3-0.7-0.5-1.5-0.5-2.4c0-0.7,0.2-1.3,0.4-1.9c0.2-0.6,0.6-1.1,1-1.5s0.9-0.7,1.5-0.9c0.6-0.2,1.2-0.3,1.9-0.3
		c1.9,0,3.3,0.5,4.4,1.5s1.7,2.5,1.9,4.6l1.2-0.1c0-0.6,0-1.2,0-1.7c0-0.6,0-1.1,0-1.6s0.1-1.1,0.1-1.6s0-1.1,0.1-1.7
		c-1.2-0.3-2.4-0.5-3.4-0.7s-2.2-0.3-3.4-0.3c-1.3,0-2.5,0.2-3.6,0.5c-1.2,0.4-2.2,0.8-3,1.5s-1.5,1.5-2,2.4c-0.5,1-0.7,2.1-0.7,3.3
		s0.3,2.2,0.7,3c0.4,0.8,1,1.5,1.7,2.2s1.5,1.2,2.4,1.7s1.8,0.9,2.7,1.3c0.8,0.4,1.6,0.7,2.3,1.1c0.7,0.4,1.4,0.8,2,1.3
		s1,1.1,1.4,1.8c0.3,0.7,0.5,1.5,0.5,2.5c0,0.8-0.1,1.5-0.4,2.1c-0.2,0.7-0.6,1.2-1.1,1.7s-1.1,0.8-1.7,1.1
		c-0.6,0.3-1.3,0.4-2.1,0.4c-1.2,0-2.2-0.1-3-0.5c-0.9-0.4-1.6-0.9-2.2-1.5s-1.2-1.3-1.6-2.2c-0.4-0.8-0.8-1.8-1.2-2.8l-1.3-0.1
		c0.3,1.3,0.6,2.5,0.8,3.6c0.2,1.1,0.4,2.3,0.5,3.6c1.3,0.4,2.6,0.7,3.7,0.9c1.1,0.2,2.2,0.3,3.3,0.3c1.2,0,2.4-0.2,3.6-0.6
		c1.2-0.3,2.2-0.9,3.1-1.6s1.7-1.6,2.2-2.6s0.8-2.2,0.8-3.5c0-1.2-0.3-2.2-0.7-3.1C288.9,290.9,288.3,290.2,287.5,289.5z"/>
	<path class="st0" d="M323.1,274.8c-1,0-2,0-3,0s-1.8,0-2.5,0l-0.1,1.1c0.9,0.1,1.7,0.2,2.3,0.3c0.6,0.1,1.1,0.3,1.4,0.6
		c0.3,0.3,0.6,0.7,0.7,1.2s0.2,1.2,0.2,2.1v12.3c0,1.6-0.3,3-0.7,4.1c-0.5,1.2-1.1,2.1-1.8,2.8c-0.7,0.8-1.6,1.3-2.5,1.6
		c-0.9,0.3-1.9,0.5-3,0.5c-1,0-2-0.2-3-0.5s-1.8-0.8-2.6-1.4c-0.8-0.7-1.4-1.5-1.9-2.5s-0.7-2.2-0.7-3.6h0.1v-13.6
		c0-0.7,0.1-1.3,0.2-1.8s0.3-1,0.6-1.2c0.3-0.2,0.7-0.5,1.2-0.6c0.6-0.1,1.3-0.2,2.1-0.3l-0.1-1c-0.4,0-0.8,0-1.2,0
		c-0.4,0-0.9,0-1.4,0s-1,0-1.5,0s-0.9,0-1.3,0c-0.5,0-1,0-1.6,0s-1.2,0-1.7,0s-1,0-1.5,0c-0.4,0-0.8,0-1.2,0l-0.1,1.1
		c0.9,0,1.6,0.1,2.1,0.2s0.9,0.3,1.2,0.5s0.5,0.5,0.6,0.8s0.1,0.7,0.1,1.2v15.6c0,1.6,0.2,2.9,0.8,4.1c0.6,1.2,1.3,2.1,2.3,2.9
		s2.1,1.3,3.3,1.7c1.3,0.4,2.6,0.6,3.9,0.6s2.7-0.3,4-0.6s2.5-0.9,3.5-1.8s1.9-2,2.5-3.3c0.7-1.4,1-3,1-4.9v-12.4
		c0-1.1,0.1-1.9,0.2-2.5c0.2-0.6,0.4-1.1,0.7-1.4s0.8-0.5,1.3-0.6s1.2-0.2,2.1-0.3v-1c-0.6,0-1.4,0-2.3,0S324,274.8,323.1,274.8z"/>
	<path class="st0" d="M352.3,275c-1,0-2.1,0-3.1,0s-1.8,0-2.5,0s-1.4,0-2.5,0.1c-0.8,0-1.7,0-2.8,0s-2.2,0-3.3,0c-1.2,0-2.3,0-3.5,0
		c0.1,1.1,0.2,2,0.2,2.8s0,1.6,0,2.5v1.8l1.1,0.1c0.2-1.1,0.4-2,0.6-2.7s0.5-1.3,0.9-1.8s0.9-0.8,1.6-1s1.6-0.3,2.7-0.3h3.3v21.9
		c0,0.7,0,1.3-0.1,1.8c0,0.5-0.2,0.8-0.5,1.1c-0.2,0.3-0.6,0.4-1.2,0.6s-1.3,0.2-2.2,0.3l0.1,1c0.4,0,0.8,0,1.3,0s0.9,0,1.4,0
		s0.9,0,1.4,0s0.9,0,1.3,0c0.5,0,1,0,1.5,0s1,0,1.6,0s1.1,0,1.6,0s1,0,1.4,0l0.1-1.1c-1,0-1.7-0.1-2.3-0.2c-0.5-0.1-1-0.3-1.2-0.5
		s-0.4-0.5-0.5-0.8s-0.1-0.7-0.1-1.2v-23h3.3c1.1,0,1.9,0.1,2.6,0.3s1.2,0.5,1.6,1s0.7,1.1,0.9,1.8c0.2,0.8,0.4,1.6,0.6,2.7l1.1-0.1
		c0-0.6,0-1.2,0-1.8c0.1-0.6,0.1-1.1,0.1-1.7s0.1-1.1,0.1-1.7c0.1-0.6,0.1-1.2,0.2-1.9c-1.2,0-2.3,0-3.5,0
		C354.5,275,353.4,275,352.3,275z"/>
	<path class="st0" d="M390.1,301.2c-0.3-0.2-0.6-0.4-0.9-0.7c-0.3-0.3-0.6-0.7-1-1.2c-0.2-0.4-0.6-0.9-1-1.6s-0.9-1.5-1.4-2.4
		s-1.1-1.9-1.7-3s-1.2-2.2-1.8-3.4c0.8-0.3,1.6-0.7,2.3-1.2c0.7-0.5,1.3-1,1.8-1.7s0.9-1.4,1.2-2.2s0.4-1.6,0.4-2.5
		c0-1.3-0.3-2.4-0.9-3.3s-1.4-1.6-2.3-2.1c-1-0.6-2-0.9-3.2-1.1s-2.3-0.3-3.5-0.3c-0.8,0-1.6,0.1-2.4,0.2s-1.6,0.2-2.4,0.2
		c-0.5,0-1,0-1.5,0s-1,0-1.5,0s-1,0-1.4,0s-0.8,0-1.1,0l-0.1,1.1c0.9,0,1.5,0.1,2,0.2s0.8,0.3,1.1,0.5c0.3,0.2,0.4,0.5,0.5,0.8
		s0.1,0.7,0.1,1.2v19.7c0,0.7,0,1.3-0.1,1.8s-0.2,0.8-0.5,1.1c-0.3,0.3-0.6,0.5-1.1,0.6c-0.4,0.1-1,0.2-1.8,0.3l0.1,1
		c0.3,0,0.6,0,1,0s0.8,0,1.2,0c0.4,0,0.9,0,1.3,0s0.8,0,1.2,0c1,0,1.9,0,2.9,0s2,0,2.9,0v-1.1c-0.9,0-1.6-0.1-2.1-0.2
		s-0.9-0.3-1.1-0.5s-0.3-0.5-0.4-0.8s-0.1-0.7-0.1-1.2l0,0v-9.5c0.3,0,0.6,0,0.8,0c0.3,0,0.4,0,0.6,0h0.9c0.5,0,0.8,0.1,1.1,0.1
		c0.3,0,0.5,0.1,0.7,0.2s0.3,0.2,0.4,0.4c0.1,0.1,0.2,0.3,0.3,0.5c0.7,1.3,1.4,2.6,2.1,3.8c0.7,1.2,1.3,2.4,1.9,3.4
		c0.6,1.1,1.1,2,1.5,2.8s0.7,1.4,0.9,1.8c0.3,0,0.6,0,0.9,0s0.6,0,0.9,0c0.8,0,1.8,0,2.7,0c0.9,0,1.7,0,2.3,0l0.1-1.1
		c-0.7-0.1-1.3-0.1-1.7-0.2C390.8,301.5,390.4,301.4,390.1,301.2z M376.7,288.6h-0.9c-0.2,0-0.3,0-0.5,0s-0.3,0-0.5,0v-9.9
		c0-0.4,0.1-0.8,0.1-1.1s0.1-0.6,0.3-0.8c0.1-0.2,0.4-0.4,0.7-0.5c0.3-0.1,0.8-0.2,1.4-0.2c2,0,3.6,0.5,4.8,1.4
		c1.2,1,1.8,2.4,1.8,4.4c0,2.3-0.7,4-1.9,5.1C380.8,288.1,379,288.6,376.7,288.6z"/>
	<path class="st0" d="M425.2,301.9c-0.5-0.1-0.9-0.3-1.2-0.5s-0.6-0.6-0.8-1.1c-0.2-0.5-0.5-1.1-0.8-2l-6.6-19.1
		c-0.2-0.6-0.5-1.3-0.7-2.1c-0.3-0.8-0.5-1.7-0.7-2.6l-1.8,0.2c-0.2,0.5-0.5,1-0.7,1.4s-0.5,0.9-0.7,1.5l-8.1,19.8
		c-0.4,1-0.8,1.8-1.1,2.4c-0.3,0.6-0.6,1.1-1,1.4s-0.8,0.6-1.3,0.7s-1.1,0.2-1.9,0.3l0.1,1c0.7,0,1.4,0,2.2,0c0.7,0,1.5,0,2.2,0
		c0.9,0,1.8,0,2.7,0c0.9,0,1.7,0,2.4,0l0.1-1.1c-1.3-0.1-2.1-0.2-2.6-0.4s-0.7-0.6-0.7-1.1c0-0.3,0.2-1,0.6-2.1l2.3-5.8h9.8l1.9,6.4
		c0.1,0.4,0.2,0.7,0.3,1c0.1,0.2,0.1,0.5,0.1,0.7c0,0.5-0.2,0.8-0.7,1c-0.4,0.2-1.2,0.3-2.3,0.4l0.1,1c0.8,0,1.7,0,2.5,0
		s1.7,0,2.5,0c1,0,2,0,3,0s1.9,0,2.7,0l0.1-1.1C426.3,302.1,425.7,302,425.2,301.9z M407.8,291l4.6-11.6h0.1l3.8,11.6H407.8z"/>
</g>
</svg>
